<?xml version="1.0" standalone="no"?><!DOCTYPE svg PUBLIC "-//W3C//DTD SVG 1.1//EN" "http://www.w3.org/Graphics/SVG/1.1/DTD/svg11.dtd"><svg t="1614414544177" class="icon" viewBox="0 0 1024 1024" version="1.1" xmlns="http://www.w3.org/2000/svg" p-id="5134" xmlns:xlink="http://www.w3.org/1999/xlink" width="200" height="200"><defs><style type="text/css"></style></defs><path d="M499.2 447.1s-149.8 96.2-161.8 324.2h459l-10.5-157.7-105.8-108.7-57-43.8-123.9-14z" fill="#ffffff" p-id="5135"></path><path d="M556 301.5m-132 0a132 132 0 1 0 264 0 132 132 0 1 0-264 0Z" fill="#ffffff" p-id="5136"></path><path d="M626.3 431.8c43.7-34.1 71.9-86.9 71.9-146.3 0-102.6-84-186.1-187.3-186.1-103.3 0-187.3 83.5-187.3 186.1 0 59.4 28.2 112.2 71.9 146.3-115.2 45.7-196.8 157.4-196.8 287.9v62c0 17.2 14 31 31.2 31h562c17.2 0 31.2-13.9 31.2-31v-62c0-130.5-81.7-242.2-196.8-287.9zM375.4 285.2c0-74.3 60.8-134.6 135.5-134.6S646.4 211 646.4 285.2c0 74.2-60.8 134.6-135.5 134.6-74.8 0.1-135.5-60.3-135.5-134.6z m400.7 476.6H245.6v-32.9c0-145.3 119-263.5 265.3-263.5 146.2 0 265.2 118.2 265.2 263.5v32.9zM268.9 460.6l6.1-1.5c13.1-4.3 22.4-15.8 22.4-29.2 0-12.9-8.7-24-21.1-28.7-33.4-15.1-55-48.2-55-84.7 0-41.3 35.9-76.2 73.5-88.2 6.6-20.2 16.5-38.9 29.2-55.4 2.2-3.6 4.5-7.2 7-10.7-2.5-0.1-4.9-0.7-7.5-0.7-86.1 0-156.1 69.6-156.1 155.1 0 39.3 15.1 76.1 40.6 104-81.2 41.8-134.2 125.5-134.2 220.1v48c0 17.2 14 31 31.2 31h55.9c0-21.3 2.2-34.9 6.3-54.9h-39.5v-24.1c0-85.7 58-159.3 141.2-180.1z m544.5-40c25.6-28 40.6-64.8 40.6-104 0-85.5-70-155.1-156.1-155.1-2.6 0-5 0.6-7.5 0.8 2.4 3.5 4.8 7.1 7 10.7 12.7 16.5 22.6 35.2 29.2 55.4 37.6 12.1 78.7 46.9 78.7 88.2 0 36.5-21.6 69.6-55 84.7-12.4 4.7-21.1 15.7-21.1 28.7 0 13.4 9.4 24.8 22.4 29.2l6.1 1.5c83.2 20.9 141.2 94.4 141.2 180.2V665h-44.7c4.1 20 6.3 33.7 6.3 54.9h55.9c17.3 0 31.2-13.9 31.2-31v-48c0-94.8-53-178.5-134.2-220.3z m0 0" fill="#ffffff" p-id="5137"></path></svg>