<svg t="1614419829589" class="icon" viewBox="0 0 1075 1024" version="1.1" xmlns="http://www.w3.org/2000/svg" p-id="5317" width="200" height="200"><path d="M0 0m128 0l768 0q128 0 128 128l0 768q0 128-128 128l-768 0q-128 0-128-128l0-768q0-128 128-128Z" fill="#1595DB" p-id="5318"></path><path d="M715.5968 624c69.4528-124.032 94.2336-240.5376 94.2336-240.5376H563.2V307.2h281.6v-51.2H563.2V128h-128v128H204.8v51.2h230.4v76.2624H230.4V435.2h440.576c0 7.5008-6.016 77.952-64.4608 154.112-317.44-124.032-409.216-49.6128-433.9968-37.2224-210.7904 148.8128-12.416 334.8224 19.84 329.8304 223.2064 49.5872 367.0272-44.672 466.2016-161.1776 7.4752 7.424 12.416 7.424 19.84 7.424C747.904 765.3632 1075.2 921.6 1075.2 921.6v-186.0096c-49.6128-4.9408-230.6304-66.9696-359.6032-111.5904z m-161.1776 57.0624c-156.2624 198.4-342.2208 136.3968-371.9936 123.9552-74.368-19.84-99.2-156.1856-7.3984-198.4 156.1856-49.5872 292.5824 7.4496 391.808 57.0624-7.4496 9.9072-12.416 17.3824-12.416 17.3824z" fill="#FFFFFF" p-id="5319"></path></svg>