<svg t="1614418745463" class="icon" viewBox="0 0 1024 1024" version="1.1" xmlns="http://www.w3.org/2000/svg" p-id="2111" width="200" height="200"><path d="M861.013333 303.104c-84.821333 0-155.192889-61.781333-168.618666-142.791111-1.536-9.159111-9.216-16.042667-18.488889-16.042667h-283.306667c-9.329778 0-17.009778 6.883556-18.488889 16.042667-13.425778 81.009778-83.797333 142.791111-168.561778 142.791111-44.259556 0-42.552889 31.004444-42.097777 44.487111C178.119111 845.027556 493.169778 936.789333 529.066667 954.424889c35.84-17.635556 350.435556-106.382222 367.559111-605.411556 0.341333-13.937778 3.356444-45.909333-35.612445-45.909333z m-30.037333 68.664889c-11.207111 258.446222-111.160889 429.852444-297.187556 509.44l-4.778666 2.048-4.778667-2.104889c-230.513778-100.124444-288.881778-332.003556-297.244444-508.814222l-0.568889-11.832889 11.832889-0.796445c81.521778-5.518222 153.031111-61.610667 177.891555-139.605333l2.673778-8.419555h226.360889l2.673778 8.419555c24.519111 76.8 92.103111 131.413333 172.202666 139.150222l11.434667 1.080889-0.512 11.434667z" fill="#b22222" p-id="2112"></path><path d="M627.655111 235.861333H436.280889c-28.842667 79.246222-101.091556 136.647111-184.547556 146.830223C261.688889 549.831111 318.805333 762.709333 529.066667 856.860444c171.008-75.320889 264.192-235.064889 277.162666-474.965333-81.749333-12.117333-150.300444-68.096-178.574222-146.033778z m41.358222 256.227556l-60.757333 59.221333c-1.991111 1.934222-2.901333 4.721778-2.389333 7.395556l14.336 83.626666c1.194667 6.826667-6.030222 12.060444-12.174223 8.817778l-75.150222-39.480889c-2.446222-1.308444-5.347556-1.308444-7.793778 0l-75.150222 39.480889c-6.144 3.242667-13.312-1.991111-12.174222-8.817778l14.336-83.626666c0.455111-2.730667-0.455111-5.461333-2.389333-7.395556L388.949333 492.088889c-4.949333-4.835556-2.218667-13.312 4.664889-14.279111l83.968-12.231111c2.730667-0.398222 5.063111-2.104889 6.314667-4.608l37.546667-76.117334c3.072-6.200889 11.946667-6.200889 15.018666 0l37.546667 76.117334c1.194667 2.446222 3.584 4.209778 6.314667 4.608l83.968 12.231111c6.940444 1.024 9.671111 9.443556 4.721777 14.279111z" fill="#b22222" p-id="2113"></path></svg>