<?xml version="1.0" standalone="no"?><!DOCTYPE svg PUBLIC "-//W3C//DTD SVG 1.1//EN" "http://www.w3.org/Graphics/SVG/1.1/DTD/svg11.dtd"><svg t="1614414429082" class="icon" viewBox="0 0 1556 1024" version="1.1" xmlns="http://www.w3.org/2000/svg" p-id="3719" xmlns:xlink="http://www.w3.org/1999/xlink" width="303.90625" height="200"><defs><style type="text/css"></style></defs><path d="M1236.114286 647.836735l-1139.983674 2.089796c-49.110204 0-88.816327-39.706122-89.861224-88.816327L5.22449 94.040816C5.22449 44.930612 44.930612 5.22449 94.040816 4.179592L1234.02449 2.089796c49.110204 0 88.816327 39.706122 89.861224 88.816326l1.044898 467.069388c0 50.155102-39.706122 89.861224-88.816326 89.861225z" fill="#4988FD" p-id="3720"></path><path d="M1273.730612 394.971429l238.236735 238.236734c52.244898 52.244898 52.244898 136.881633 0 189.126531l-157.779592 157.779592c-15.673469 15.673469-36.571429 25.077551-59.559184 27.167347-67.918367 6.269388-216.293878 16.718367-253.910204 9.404081-10.44898-2.089796-20.897959-7.314286-29.257143-14.628571L869.355102 859.95102c42.840816-42.840816 111.804082-42.840816 154.644898 0l57.469388 57.469388 13.583673-13.583673-337.502041-337.502041c-20.897959-20.897959-20.897959-56.42449 0-77.322449s56.42449-20.897959 77.322449 0l164.04898 164.048979 13.583673-12.538775-55.379591-55.379592c-20.897959-20.897959-21.942857-56.42449 0-77.322449 20.897959-20.897959 56.42449-20.897959 77.322449 0l55.379591 55.379592 14.628572-14.628571-27.167347-27.167347c-19.853061-19.853061-19.853061-52.244898 0-72.09796 19.853061-19.853061 52.244898-19.853061 72.097959 0l28.212245 28.212245 16.718367-15.673469c-14.628571-19.853061-12.538776-48.065306 5.22449-65.828571 21.942857-20.897959 54.334694-20.897959 74.187755-1.044898z" fill="#C5DCFA" p-id="3721"></path><path d="M285.257143 468.114286V207.934694h117.028571c55.379592 0 88.816327 33.436735 88.816327 68.963265 0 38.661224-33.436735 54.334694-33.436735 54.334694s45.97551 14.628571 45.97551 61.64898c0 38.661224-37.616327 76.277551-95.085714 76.277551H285.257143v-1.044898z m71.053061-204.8v44.930612h38.661225c15.673469 0 24.032653-9.404082 24.032653-21.942857 0-12.538776-9.404082-21.942857-24.032653-21.942857h-38.661225v-1.044898z m48.065306 149.420408c16.718367 0 28.212245-11.493878 28.212245-26.122449s-11.493878-26.122449-28.212245-26.122449h-48.065306v52.244898h48.065306zM714.710204 360.489796V207.934694h71.053061v152.555102c0 64.783673-50.155102 114.938776-119.118367 114.938775-68.963265 0-119.118367-50.155102-119.118367-114.938775V207.934694h71.053061v152.555102c0 29.257143 21.942857 52.244898 48.065306 52.244898 26.122449 0 48.065306-22.987755 48.065306-52.244898zM1069.97551 207.934694l-92.995918 167.183673v92.995919h-71.053061v-92.995919l-92.995919-167.183673h76.277551l52.244898 100.310204 52.244898-100.310204z" fill="#FFFFFF" p-id="3722"></path></svg>