<svg t="1614419857848" class="icon" viewBox="0 0 1024 1024" version="1.1" xmlns="http://www.w3.org/2000/svg" p-id="7369" width="200" height="200"><path d="M151.04 0C92.672 0 70.656 21.504 70.656 79.872v706.56c0 6.656 0.512 12.8 1.024 18.432 1.536 12.8 1.536 25.088 13.312 39.424 1.024 1.536 13.312 10.24 13.312 10.24 6.656 3.072 10.752 5.632 18.432 8.704l355.328 148.992c18.432 8.192 26.112 11.776 39.424 11.264 13.312 0.512 21.504-3.072 39.424-11.264l355.328-148.992c7.168-3.072 11.776-5.12 18.432-8.704 0 0 12.288-9.216 13.312-10.24 11.776-13.824 12.288-26.624 13.312-39.424 0.512-5.632 1.024-11.776 1.024-18.432v-706.56C952.32 21.504 930.816 0 871.936 0H151.04z m569.856 132.608h29.184c48.128 0 71.68 23.552 71.68 72.192v80.384h-58.368v-76.8c0-15.872-7.168-23.04-22.528-23.04h-9.728c-15.872 0-23.04 7.168-23.04 23.04v247.808c0 15.36 7.168 23.04 23.04 23.04h11.264c14.848 0 22.016-7.168 22.016-23.04V367.616h58.88v91.648c0 48.64-24.064 108.544-72.704 108.544l-29.696-35.84c-48.64 0-72.704-24.064-72.704-72.704V205.824c0-49.152 24.064-73.216 72.704-73.216z m-520.192 3.072h132.608v54.272H260.608v111.104h70.656v54.272H260.608v118.272h74.24v54.272l-133.632 35.84-0.512-428.032z m162.816 0h93.696c48.64 0 72.704 24.064 72.704 73.216v104.448c0 48.64-24.064 72.704-72.704 72.704h-33.792v178.176l-59.904-35.84V135.68z m193.536 0h59.392v428.544h-59.392V135.68zM423.424 188.928v144.384h24.576c14.848 0 22.016-7.168 22.016-23.04V211.968c0-15.872-7.168-23.04-22.016-23.04h-24.576zM342.016 883.712h342.016l-174.592 57.344-167.424-57.344z" p-id="7370" fill="#ffffff"></path></svg>