<svg t="1614425348832" class="icon" viewBox="0 0 1024 1024" version="1.1" xmlns="http://www.w3.org/2000/svg" p-id="18565" width="200" height="200"><path d="M511.788986 108.889278a32.666783 32.666783 0 0 0 32.666784-32.666783v-43.555712a32.666783 32.666783 0 0 0-65.333567 0v43.555712a32.666783 32.666783 0 0 0 32.666783 32.666783zM969.123955 413.997036h-43.555711a32.666783 32.666783 0 0 0 0 65.333567h43.555711a32.666783 32.666783 0 0 0 0-65.333567zM130.676512 446.66382A32.797451 32.797451 0 0 0 98.009729 413.997036h-43.555711a32.666783 32.666783 0 0 0 0 65.333567h43.555711A32.666783 32.666783 0 0 0 130.676512 446.66382z m768.758305 258.938704a28.986326 28.986326 0 0 0-41.63926 0 29.922774 29.922774 0 0 0 0 42.031261l27.788544 28.093434a29.574328 29.574328 0 0 0 41.63926-42.031262zM130.676512 692.753589l-30.815665 31.142333a33.407231 33.407231 0 0 0 0 46.82239 32.666783 32.666783 0 0 0 46.190831 0l30.815666-31.142334a33.145896 33.145896 0 0 0 0-46.604611 32.29656 32.29656 0 0 0-46.081942-0.217778z m696.891382-170.085053A308.025991 308.025991 0 0 0 517.516563 217.560778 297.529064 297.529064 0 0 0 217.657268 518.748522a304.084199 304.084199 0 0 0 155.472111 273.747646 39.875254 39.875254 0 0 0-3.157789 28.311212v67.729131c0 74.698045 52.114409 135.458262 125.396893 135.458262h44.296159A134.325814 134.325814 0 0 0 675.122904 893.109861v-65.333567a64.985121 64.985121 0 0 0-10.475149-35.280126A305.325536 305.325536 0 0 0 827.567894 522.668536zM609.789337 827.776294v21.777855h-114.35552a32.666783 32.666783 0 1 0 0 65.333567h110.348395a70.974032 70.974032 0 0 1-66.052237 43.77349h-44.296158c-36.695687 0-59.82377-32.666783-59.82377-70.124695v-67.729131l81.754071 6.968914H609.789337z m-91.989662-65.333567h-0.435557A238.685298 238.685298 0 0 1 283.121502 518.748522a231.651051 231.651051 0 0 1 234.438616-235.636398A239.687079 239.687079 0 1 1 517.734341 762.442727z m-0.217779-424.885964a32.666783 32.666783 0 1 0 0 65.333567 120.997766 120.997766 0 0 1 121.803547 119.778206 33.233008 33.233008 0 0 0 66.444237 0 186.875779 186.875779 0 0 0-188.313117-185.111773z m382.027144 368.045761a28.986326 28.986326 0 0 0-41.63926 0 29.922774 29.922774 0 0 0 0 42.031261l27.788544 28.093434a29.574328 29.574328 0 0 0 41.63926-42.031262z m-768.758305-12.848935l-30.815666 31.142333a33.407231 33.407231 0 0 0 0 46.82239 32.666783 32.666783 0 0 0 46.190832 0l30.815666-31.142334a33.145896 33.145896 0 0 0 0-46.604611 32.29656 32.29656 0 0 0-46.256165-0.217778zM823.081655 122.827106l-32.165892 32.884562a35.323682 35.323682 0 0 0 0 49.217954 33.51612 33.51612 0 0 0 48.216172 0l32.144115-32.884562a35.280126 35.280126 0 0 0 0-49.217954 33.537898 33.537898 0 0 0-48.259728 0z m-651.157884-2.831121l34.844569 34.844569a36.913465 36.913465 0 1 1-52.114409 52.266853l-34.844569-34.844569A36.957021 36.957021 0 0 1 172.054438 119.995985z" p-id="18566" fill="#ffffff"></path></svg>