<svg t="1614419217486" class="icon" viewBox="0 0 1025 1024" version="1.1" xmlns="http://www.w3.org/2000/svg" p-id="2105" width="200" height="200"><path d="M885.808115 275.542693c75.832065 0 137.318624-61.475832 137.318624-137.318624 0-75.83421-61.48656-137.318624-137.318624-137.318624-75.842793 0-137.318624 61.484414-137.318624 137.318624 0.083679 75.808463 61.510161 137.2328 137.318624 137.318624z m0-240.307592c56.873512 0 102.988968 46.11331 102.988968 102.988968 0 56.88424-46.115456 102.988968-102.988968 102.988968-56.88424 0-102.988968-46.104728-102.988968-102.988968 0.049349-56.84991 46.130475-102.931037 102.988968-102.988968z m0 0M299.747246 402.802728a75.516661 75.516661 0 0 0 53.556409-22.142628l154.878244-154.893263 103.381613 103.381614c29.568562 29.568562 77.501344 29.568562 107.072052 0l0.10728-0.100843c29.487029-29.585727 29.487029-77.44985 0-107.035577l-149.889715-149.848948c-33.50789-33.50789-87.836716-33.50789-121.353189 0l-201.375617 201.358452a75.756968 75.756968 0 0 0 53.622923 129.281193z m-29.351856-104.941467l201.377763-201.435694c20.10645-20.097868 52.700313-20.097868 72.815346 0l149.883278 149.94121c16.109191 16.167122 16.109191 42.32632 0 58.493442l-0.10728 0.107281c-16.17785 16.126356-42.354213 16.126356-58.527772 0l-115.519293-115.534312a17.158391 17.158391 0 0 0-24.273212 0l-167.028796 166.955845c-16.403139 15.697235-42.274826 15.654323-58.617888-0.100843-16.068425-16.160686-16.068425-42.268389 0-58.424784z m0 0M954.467427 447.190973h-171.64828v-85.82414a17.151954 17.151954 0 0 0-10.603573-15.849573 17.160537 17.160537 0 0 0-18.698934 3.711894l-102.988968 102.988968a17.166974 17.166974 0 0 0-5.027149 12.137679v68.659313c0 28.446411 23.048073 51.494484 51.494484 51.494484h257.47242c37.917105 0 68.659312-30.733625 68.659312-68.659313 0-37.917105-30.742207-68.659312-68.659312-68.659312z m0 102.988969h-257.47242a17.164828 17.164828 0 0 1-17.164828-17.164828v-61.553074l68.659312-68.659312v61.553073a17.164828 17.164828 0 0 0 17.164828 17.164828h188.813108c18.958553 0 34.329656 15.371103 34.329656 34.329656 0 18.967135-15.371103 34.329656-34.329656 34.329657z m0 0M434.853753 672.052366l-82.873935-82.873935c-6.814437-6.436811-17.465213-6.436811-24.273213 0L22.176958 894.716661c-29.568562 29.559979-29.568562 77.492762 0 107.054887v0.083678c29.577144 29.52565 77.477743 29.52565 107.052741 0L434.763638 696.323433a17.164828 17.164828 0 0 0 0.092261-24.271067zM105.010127 977.590596c-16.160686 16.126356-42.334903 16.126356-58.493443 0h-0.068659c-16.167122-16.149958-16.167122-42.349922 0-58.502025l293.379095-293.50354 58.600723 58.617888z m0 0" p-id="2106" fill="#d81e06"></path><path d="M524.170936 493.330031a75.8149 75.8149 0 0 0-73.62853-20.509824 75.810609 75.810609 0 0 0-54.05848 54.052044 75.793444 75.793444 0 0 0 20.501241 73.637112l134.108802 134.074472-162.621727 86.660925c-36.166293 20.662162-48.788878 66.700376-28.203958 102.907435l2.439551 4.499331a76.147468 76.147468 0 0 0 65.942979 38.035113 74.218571 74.218571 0 0 0 37.04599-9.84832l211.710988-113.858595 27.463725-15.774477a85.837014 85.837014 0 0 0 42.409999-63.127947 85.847742 85.847742 0 0 0-24.389075-72.027909z m189.074872 266.262958a51.108275 51.108275 0 0 1-25.421111 37.766913L449.010445 926.817035c-19.705223 11.290166-44.832385 4.643086-56.365004-14.918381l-2.456716-4.501476c-11.238671-19.610816-4.634504-44.613534 14.82612-56.111823l182.655227-97.30741a17.162682 17.162682 0 0 0 4.048753-27.289931l-150.479756-150.449718c-16.199306-16.201452-16.199306-42.470076 0-58.669382 16.201452-16.201452 42.46793-16.201452 58.669382 0l198.803039 198.751544a51.061072 51.061072 0 0 1 14.534318 43.272531z m0 0" p-id="2107" fill="#d81e06"></path></svg>