<svg t="1614416742101" class="icon" viewBox="0 0 1024 1024" version="1.1" xmlns="http://www.w3.org/2000/svg" p-id="1963" width="200" height="200"><path d="M557.056 235.52H471.04v88.064h83.968v-88.064z m245.76 110.592H573.44c14.336 0 24.576 12.288 24.576 26.624v374.784h110.592c-14.336 0-24.576-12.288-24.576-26.624V436.224h118.784c28.672 0 51.2 24.576 51.2 53.248 0 28.672-22.528 53.248-51.2 53.248h-98.304v88.064h98.304c75.776 0 135.168-63.488 135.168-143.36 0-77.824-61.44-141.312-135.168-141.312z m-458.752 26.624v247.808L86.016 346.112v129.024l258.048 272.384H430.08V346.112h-110.592c14.336 0 24.576 12.288 24.576 26.624z m212.992 348.16V346.112h-110.592c14.336 0 24.576 12.288 24.576 26.624v374.784h110.592c-14.336 0-24.576-12.288-24.576-26.624z" fill="#ffffff" p-id="1964"></path></svg>