<svg t="1614419802797" class="icon" viewBox="0 0 1117 1024" version="1.1" xmlns="http://www.w3.org/2000/svg" p-id="5176" width="200" height="200"><path d="M406.341818 623.104a32.116364 32.116364 0 0 1-17.501091 4.747636 36.258909 36.258909 0 0 1-31.883636-19.083636l-3.165091-4.794182-102.027636-223.092363c-1.582545-3.211636-1.582545-4.794182-1.582546-8.005819 0-9.541818 7.959273-19.083636 19.130182-19.083636 4.794182 0 7.959273 1.582545 11.170909 3.165091l119.482182 86.062545c8.005818 6.376727 19.130182 9.541818 30.254545 9.541819 6.423273 0 12.8-1.582545 19.176728-3.165091l564.130909-251.810909C911.499636 78.103273 745.797818 0 557.754182 0 250.181818 0 0 208.756364 0 465.314909c0 140.241455 74.938182 266.146909 192.837818 350.580364a36.305455 36.305455 0 0 1 15.918546 30.254545c0 4.794182-1.582545 8.005818-1.582546 11.170909-9.588364 35.095273-23.924364 90.856727-25.506909 94.021818-1.582545 4.794182-3.211636 9.588364-3.211636 14.382546 0 9.541818 8.005818 19.083636 19.130182 19.083636a22.993455 22.993455 0 0 0 11.170909-3.165091l122.693818-70.144c9.588364-4.747636 19.130182-7.912727 30.254545-7.912727 6.423273 0 11.170909 1.582545 15.965091 3.165091 57.390545 15.918545 117.946182 25.506909 181.666909 25.506909C866.909091 932.258909 1117.090909 723.456 1117.090909 466.850909c0-78.056727-22.341818-151.365818-63.767273-215.133091l-646.981818 371.339637z" fill="#27C15A" p-id="5177"></path></svg>