<svg t="1614417094878" class="icon" viewBox="0 0 2457 1024" version="1.1" xmlns="http://www.w3.org/2000/svg" p-id="2458" width="200" height="200"><path d="M1921.024 575.488l69.632 112.64 12.288 18.432 4.096 10.24h92.16l-83.968-139.264h-94.208z m-32.768-112.64v-43.008h194.56v-88.064h-194.56V307.2h-110.592c14.336 0 24.576 12.288 24.576 26.624v131.072h-83.968V552.96H1802.24v192.512h110.592c-14.336 0-24.576-12.288-24.576-26.624V552.96h210.944v-88.064H1888.256zM829.44 241.664h-83.968V327.68h83.968v-86.016z m245.76 108.544H845.824c14.336 0 24.576 12.288 24.576 26.624v366.592h110.592c-14.336 0-24.576-12.288-24.576-26.624V436.224h118.784c28.672 0 51.2 22.528 51.2 53.248 0 28.672-22.528 53.248-51.2 53.248h-98.304v88.064h98.304c75.776 0 135.168-61.44 135.168-139.264 0-79.872-61.44-141.312-135.168-141.312z m-458.752 26.624v241.664L358.4 350.208v126.976l258.048 266.24h83.968V350.208h-110.592c16.384 0 26.624 12.288 26.624 26.624zM829.44 716.8V350.208h-110.592c14.336 0 24.576 12.288 24.576 26.624v366.592h110.592c-14.336-2.048-24.576-12.288-24.576-26.624z m733.184-409.6h-307.2c14.336 0 24.576 12.288 24.576 26.624v409.6h86.016v-61.44h182.272V593.92h-182.272v-43.008h182.272v-88.064h-182.272v-69.632h196.608c10.24 0 16.384 8.192 16.384 16.384v331.776h86.016V411.648c0-57.344-47.104-104.448-102.4-104.448z" fill="#e41f1f" p-id="2459"></path></svg>